<svg xmlns="http://www.w3.org/2000/svg" xmlns:xlink="http://www.w3.org/1999/xlink" xmlns:sketch="http://www.bohemiancoding.com/sketch/ns" viewBox="0 0 151 175" version="1.1" x="0px" y="0px"><title>Artboard 19</title><desc>Created with Sketch.</desc><g stroke="none" stroke-width="1" fill="none" fill-rule="evenodd" sketch:type="MSPage"><g sketch:type="MSArtboardGroup" fill="#000000"><path d="M34,89.5485174 C44.0258691,93.2739346 58.1217533,95.3977067 72,95.6860268 L72,95.6860268 L72,81.3323886 L72,81.3323886 L72,61 L71.9741359,61 C71.9913076,60.6688389 72,60.3354345 72,60 C72,49.5065898 63.4934102,41 53,41 C42.5065898,41 34,49.5065898 34,60 C34,60.3354345 34.0086924,60.6688389 34.0258641,61 L34,61 L34,69.3323886 L34,89.5485174 Z M29,87.3790881 C23.3564333,84.4998881 19.8889385,80.9199578 19.8889385,76.7097188 C19.8889385,72.4994799 23.3564333,68.9195496 29,66.0403496 L29,87.3790881 Z M37.3705681,41.7862324 C38.1345913,41.1300096 38.9403715,40.5210324 39.7833774,39.9638321 L38.3290556,31.8088928 C37.7744806,28.6991783 39.4216096,27.923567 41.4684947,30.3293681 L46.9479031,36.7695765 C48.8812973,36.267296 50.9094335,36 53,36 C60.7323984,36 67.6107216,39.6567308 72,45.3352229 L72,41 L72.0016394,41 C72.0524212,36.3941251 73.2807505,32.0913414 75.3830053,28.4024932 L71.9276853,21.0300662 C70.5871536,18.1698472 71.9774151,16.9943558 74.5772214,18.7884083 L80.0028691,22.5324937 L80.0028691,22.5324937 C80.842789,21.7444711 81.7357895,21.0176329 82.6754365,20.3585663 L82.6754365,20.3585663 L81.3290556,12.8088928 C80.7744806,9.6991783 82.4216096,8.923567 84.4684947,11.3293681 L89.374835,17.0960223 C91.480446,16.4624763 93.7034113,16.1233178 96,16.1233178 C108.806882,16.1233178 119.32429,26.6701787 119.968712,40 L119.968712,40 L120,40 L120,55.8693022 L120,55.8693022 C136.191579,61.373752 145.6547,70.1281475 145.356187,80.4972535 C145.323293,81.6398671 145.179246,82.8291935 144.927428,84.0545343 L144.927428,84.0545343 C115.104006,101.922607 78.7224147,107.769509 51.4836304,109.590112 C29.4012775,103.821687 15.4133054,95.0232749 6.75160232,89.7216061 L6.75160232,89.7216061 C5.63087983,86.6203704 5.03282056,83.5178687 5.00075168,80.4972535 C4.88976367,70.0431289 13.9836162,61.6510617 29.2875207,56.2738495 L29.2875207,56.2738495 C29.7775504,53.1301272 30.8777735,50.1884479 32.4632643,47.5737372 L28.9276853,40.0300662 C27.5871536,37.1698472 28.9774151,35.9943558 31.5772214,37.7884083 L37.3705681,41.7862324 L37.3705681,41.7862324 Z M115,62.8397066 L115,90.0822158 C104.720863,93.6050435 90.6792831,95.555944 77,95.7099943 L77,62.8397066 L77,41.1233178 C77.0894101,30.0997872 85.5891683,21.2392389 96,21.2392389 C106.410832,21.2392389 114.91059,30.0997872 114.999299,41.1233178 L115,62.8397066 L115,62.8397066 Z M120,65.3166967 C126.520464,68.3115209 130.606749,72.1392249 130.606749,76.7097188 C130.606749,81.2802128 126.520464,85.1079168 120,88.102741 L120,65.3166967 L120,65.3166967 Z M120.80719,114.33032 C131.482258,107.346898 139.070834,98.5494919 142.781463,90.4415404 L142.781463,90.4415404 C114.659265,103.886125 93.9618415,109.504853 62.903436,112.134471 C78.562068,115.04753 97.6306833,116.327998 120.807194,114.330319 L120.80719,114.33032 Z M109.593542,120.414296 C99.8491148,124.722543 88.4041875,127.458984 75.6269568,127.458984 C56.2966094,127.458984 39.7616511,121.972231 27.5608534,113.951896 C32.7090403,113.801223 37.5868166,113.627844 42.2321334,113.421438 C61.5958244,119.066471 84.1963873,121.666621 109.593542,120.414296 L109.593542,120.414296 Z M13.7733574,101.745217 C16.2365925,104.753967 19.182853,107.648153 22.5663807,110.339958 C25.4905181,110.369556 28.9204036,110.380976 32.7671833,110.328972 C25.9698737,107.856757 19.6310353,104.981633 13.7733574,101.745217 L13.7733574,101.745217 Z" sketch:type="MSShapeGroup"/><ellipse sketch:type="MSShapeGroup" cx="101.652345" cy="35.751138" rx="3.9751138" ry="3.9751138"/><ellipse sketch:type="MSShapeGroup" cx="59.6523449" cy="55.751138" rx="3.9751138" ry="3.9751138"/></g></g><text x="0" y="155" fill="#000000" font-size="5px" font-weight="bold" font-family="'Helvetica Neue', Helvetica, Arial-Unicode, Arial, Sans-serif">Created by Nick Bluth</text><text x="0" y="160" fill="#000000" font-size="5px" font-weight="bold" font-family="'Helvetica Neue', Helvetica, Arial-Unicode, Arial, Sans-serif">from the Noun Project</text></svg>